<svg width="18" height="18" viewBox="0 0 18 18" fill="none" xmlns="http://www.w3.org/2000/svg">
<g id="icon &#60;- change size here" clip-path="url(#clip0_248_14752)">
<g id="general/book">
<path id="Vector" fill-rule="evenodd" clip-rule="evenodd" d="M2.19182 2.01275C2.39052 1.87217 2.64509 1.83675 2.87462 1.91776L9 4.07966L15.1254 1.91776C15.3549 1.83675 15.6095 1.87217 15.8082 2.01275C16.0069 2.15333 16.125 2.3816 16.125 2.62501V13.125C16.125 13.443 15.9245 13.7264 15.6246 13.8322L9.24961 16.0822C9.08809 16.1393 8.91191 16.1393 8.75039 16.0822L2.37538 13.8322C2.07553 13.7264 1.875 13.443 1.875 13.125V2.62501C1.875 2.3816 1.99312 2.15333 2.19182 2.01275ZM8.25 5.40564L3.375 3.68505V12.5944L8.25 14.315V5.40564ZM9.75 14.315L14.625 12.5944V3.68505L9.75 5.40564V14.315ZM4.75225 5.1062L7.37725 6.0437L6.87275 7.45631L4.24775 6.51881L4.75225 5.1062ZM13.7523 6.51881L11.1273 7.45631L10.6227 6.0437L13.2477 5.1062L13.7523 6.51881ZM4.75225 7.7312L7.37725 8.6687L6.87275 10.0813L4.24775 9.14381L4.75225 7.7312ZM13.7523 9.14381L11.1273 10.0813L10.6227 8.6687L13.2477 7.7312L13.7523 9.14381ZM4.75225 10.3562L7.37725 11.2937L6.87275 12.7063L4.24775 11.7688L4.75225 10.3562ZM13.7523 11.7688L11.1273 12.7063L10.6227 11.2937L13.2477 10.3562L13.7523 11.7688Z" fill="#4E5969"/>
</g>
</g>
<defs>
<clipPath id="clip0_248_14752">
<rect width="18" height="18" fill="white"/>
</clipPath>
</defs>
</svg>
