<svg width="14" height="14" viewBox="0 0 14 14" fill="none" xmlns="http://www.w3.org/2000/svg">
<g id="interactive-button/settings">
<path id="Vector" fill-rule="evenodd" clip-rule="evenodd" d="M4.92043 1.80744C5.02563 1.42872 5.37046 1.16663 5.76351 1.16663H8.2368C8.62985 1.16663 8.97467 1.42872 9.07987 1.80744L9.37814 2.88121L10.4573 2.60261C10.8378 2.50436 11.2372 2.67193 11.4338 3.01233L12.6704 5.15426C12.8669 5.49466 12.8124 5.92433 12.537 6.20479L11.7562 6.99996L12.537 7.79513C12.8124 8.0756 12.8669 8.50527 12.6704 8.84566L11.4338 10.9876C11.2372 11.328 10.8378 11.4956 10.4573 11.3973L9.37814 11.1187L9.07987 12.1925C8.97467 12.5712 8.62985 12.8333 8.2368 12.8333H5.76351C5.37045 12.8333 5.02563 12.5712 4.92043 12.1925L4.62218 11.1188L3.54328 11.3973C3.1627 11.4956 2.76331 11.328 2.56678 10.9876L1.33014 8.84566C1.13361 8.50527 1.18818 8.0756 1.46356 7.79513L2.24431 6.99996L1.46356 6.20479C1.18818 5.92433 1.13361 5.49465 1.33014 5.15426L2.56678 3.01233C2.76331 2.67193 3.1627 2.50436 3.54328 2.60261L4.62218 2.88115L4.92043 1.80744ZM4.54553 10.8428L4.54564 10.8432ZM5.9852 2.33329L5.66964 3.46933C5.54197 3.92894 5.0697 4.2016 4.60783 4.08236L3.4663 3.78765L2.45135 5.5456L3.27742 6.38693C3.61162 6.7273 3.61162 7.27263 3.27742 7.61299L2.45135 8.45432L3.4663 10.2123L4.60783 9.91756C5.0697 9.79832 5.54197 10.071 5.66964 10.5306L5.9852 11.6666H8.0151L8.33069 10.5305C8.45835 10.0709 8.93063 9.79826 9.39249 9.9175L10.5343 10.2123L11.5492 8.45432L10.7231 7.61299C10.3889 7.27263 10.3889 6.72729 10.7231 6.38693L11.5492 5.5456L10.5342 3.78766L9.39249 4.08242C8.93062 4.20166 8.45835 3.929 8.33069 3.46939L8.0151 2.33329H5.9852ZM7.00015 5.83329C6.35582 5.83329 5.83349 6.35563 5.83349 6.99996C5.83349 7.64429 6.35582 8.16663 7.00015 8.16663C7.64449 8.16663 8.16682 7.64429 8.16682 6.99996C8.16682 6.35563 7.64449 5.83329 7.00015 5.83329ZM4.66682 6.99996C4.66682 5.71129 5.71149 4.66663 7.00015 4.66663C8.28882 4.66663 9.33349 5.71129 9.33349 6.99996C9.33349 8.28862 8.28882 9.33329 7.00015 9.33329C5.71149 9.33329 4.66682 8.28862 4.66682 6.99996Z" fill="#4E5969"/>
</g>
</svg>
