<svg width="32" height="32" viewBox="0 0 32 32" fill="none" xmlns="http://www.w3.org/2000/svg">
<g id="general/archive">
<path id="Vector" fill-rule="evenodd" clip-rule="evenodd" d="M2.66797 6C2.66797 4.89543 3.5634 4 4.66797 4H27.3346C28.4392 4 29.3346 4.89543 29.3346 6V11.3333C29.3346 12.4379 28.4392 13.3333 27.3346 13.3333V26C27.3346 27.1046 26.4392 28 25.3346 28H6.66797C5.5634 28 4.66797 27.1046 4.66797 26L4.66797 13.3333C3.5634 13.3333 2.66797 12.4379 2.66797 11.3333V6ZM7.33464 13.3333H24.668V25.3333H7.33464V13.3333ZM26.668 10.6667H25.3346H6.66797H5.33464V6.66667H26.668V10.6667ZM12.668 19.3333H19.3346V16.6667H12.668V19.3333Z" fill="#0E42D2"/>
</g>
</svg>
