<svg width="14" height="14" viewBox="0 0 14 14" fill="none" xmlns="http://www.w3.org/2000/svg">
<g id="general/language">
<path id="Union" fill-rule="evenodd" clip-rule="evenodd" d="M9.04134 2.62494L5.78623 2.62494L5.53001 1.34387L4.386 1.57267L4.59646 2.62494L1.45801 2.62494V3.79161L2.76918 3.79161C2.84682 4.03671 2.9619 4.36714 3.11878 4.73626C3.38883 5.37167 3.79789 6.15836 4.37967 6.81783C3.85362 7.21613 3.2677 7.57787 2.75354 7.86768C2.39845 8.06782 2.08506 8.22953 1.86097 8.34094C1.74904 8.39658 1.6597 8.43953 1.59894 8.46829C1.56857 8.48267 1.54536 8.49349 1.53007 8.50057L1.51318 8.50836L1.50864 8.51043C1.50864 8.51043 1.50874 8.51039 1.74975 9.04161C1.99075 9.57283 1.99166 9.57241 1.99166 9.57241L1.99338 9.57163L1.99923 9.56896L2.02032 9.55924C2.03846 9.55084 2.06464 9.53862 2.0981 9.52278C2.16501 9.49111 2.26112 9.44489 2.38035 9.38562C2.61858 9.26718 2.95029 9.09601 3.3264 8.88401C3.90872 8.55578 4.61608 8.1194 5.24971 7.61982C5.88334 8.1194 6.5907 8.55578 7.17302 8.88401C7.54913 9.09601 7.88084 9.26718 8.11907 9.38562C8.14895 9.40047 8.17737 9.4145 8.20425 9.42769L7.97194 9.98334L7.04094 12.3263L8.12515 12.7571L8.67433 11.375H11.1583L11.7076 12.7572L12.7918 12.3262L11.8644 9.99287L10.4913 6.70837H9.34119L8.65515 8.34923C8.64964 8.3465 8.64407 8.34373 8.63845 8.34094C8.41436 8.22953 8.10097 8.06782 7.74588 7.86768C7.23172 7.57787 6.6458 7.21613 6.11975 6.81783C6.70153 6.15836 7.11059 5.37167 7.38064 4.73626C7.53752 4.36714 7.6526 4.03671 7.73024 3.79161L9.04134 3.79161V2.62494ZM6.30692 4.27993C6.05858 4.86426 5.70837 5.51908 5.24971 6.04061C4.79105 5.51908 4.44084 4.86426 4.1925 4.27993C4.11833 4.10542 4.05461 3.94047 4.00085 3.79161L6.49857 3.79161C6.44481 3.94047 6.38109 4.10542 6.30692 4.27993ZM10.69 10.2084H9.14248L9.91624 8.35755L10.69 10.2084Z" fill="#4E5969"/>
</g>
</svg>
